# File created by Blade
# Date/Time:  Wed Jan 28 16:58:26 2015
#---------------------------------------------------------
:version 1.10
:name HOM
:units
  mass 1.0
  length 1.000000
  angle deg
:documentation
     Acclaim Skeleton File
:root
   axis xyz
   order TX TY TZ RX RY RZ
   position 0.000000 0.000000 0.000000
   orientation 0 0 0
:bonedata
   begin
      id 1
      name Spine_dum
      direction 0.000000 1.000000 0.000000
      length 9.621153
      axis 0.0 0.0 0.0 xyz
   end
   begin
      id 2
      name LeftUpLeg_dum
      direction 1.000000 0.000000 0.000000
      length 2.700595
      axis 0.0 0.0 0.0 xyz
   end
   begin
      id 3
      name RightUpLeg_dum
      direction -1.000000 0.000000 0.000000
      length 2.700595
      axis 0.0 0.0 0.0 xyz
   end
   begin
      id 4
      name Spine
      direction 0.000000 1.000000 0.000000
      length 0.000000
      axis 0.0 0.0 0.0 xyz
      dof rx ry rz
   end
   begin
      id 5
      name Spine_dum1
      direction 0.000000 1.000000 0.000000
      length 12.771951
      axis 0.0 0.0 0.0 xyz
   end
   begin
      id 6
      name Spine_dum2
      direction 0.000000 1.000000 0.000000
      length 7.400569
      axis 0.0 0.0 0.0 xyz
   end
   begin
      id 7
      name Spine_dum3
      direction 0.000000 1.000000 0.000000
      length 7.400569
      axis 0.0 0.0 0.0 xyz
   end
   begin
      id 8
      name Head
      direction 0.000000 1.000000 0.000000
      length 4.527550
      axis 0.0 0.0 0.0 xyz
      dof rx ry rz
   end
   begin
      id 9
      name LeftShoulder
      direction 1.000000 0.000000 0.000000
      length 8.349299
      axis 0.0 0.0 -90.0 xyz
      dof rx ry rz
   end
   begin
      id 10
      name LeftArm
      direction 1.000000 0.000000 0.000000
      length 11.334839
      axis 0.0 0.0 -90.0 xyz
      dof rx ry rz
   end
   begin
      id 11
      name LeftForeArm
      direction 1.000000 0.000000 0.000000
      length 9.694182
      axis 0.0 0.0 -90.0 xyz
      dof ry rz rx
   end
   begin
      id 12
      name LeftHand
      direction 0.000000 0.000000 0.000000
      length 0.000000
      axis 0.0 0.0 -90.0 xyz
      dof rx ry rz
   end
   begin
      id 13
      name LeftHand_dum1
      direction 0.000000 0.000000 0.000000
      length 0.000000
      axis 0.0 0.0 -90.0 xyz
   end
   begin
      id 14
      name LeftHand_dum2
      direction 1.000000 0.000000 0.000000
      length 3.937000
      axis 0.0 0.0 -90.0 xyz
   end
   begin
      id 15
      name LeftHandThumb1
      direction 0.000000 0.000000 1.000000
      length 3.937000
      axis 0.0 0.0 -90.0 xyz
      dof rx rz ry
   end
   begin
      id 16
      name RightShoulder
      direction -1.000000 0.000000 0.000000
      length 8.349299
      axis 0.0 0.0 90.0 xyz
      dof rx ry rz
   end
   begin
      id 17
      name RightArm
      direction -1.000000 0.000000 0.000000
      length 11.334839
      axis 0.0 0.0 90.0 xyz
      dof rx ry rz
   end
   begin
      id 18
      name RightForeArm
      direction -1.000000 0.000000 0.000000
      length 9.694182
      axis 0.0 0.0 90.0 xyz
      dof ry rz rx
   end
   begin
      id 19
      name RightHand
      direction 0.000000 0.000000 0.000000
      length 0.000000
      axis 0.0 0.0 90.0 xyz
      dof rx ry rz
   end
   begin
      id 20
      name RightHand_dum1
      direction 0.000000 0.000000 0.000000
      length 0.000000
      axis 0.0 0.0 90.0 xyz
   end
   begin
      id 21
      name RightHand_dum2
      direction -1.000000 0.000000 0.000000
      length 3.937000
      axis 0.0 0.0 90.0 xyz
   end
   begin
      id 22
      name RightHandThumb1
      direction 0.000000 0.000000 1.000000
      length 3.937000
      axis 0.0 0.0 90.0 xyz
      dof rx rz ry
   end
   begin
      id 23
      name LeftUpLeg
      direction 0.000000 -1.000000 0.000000
      length 16.757176
      axis 0.0 0.0 0.0 xyz
      dof rx ry rz
   end
   begin
      id 24
      name LeftLeg
      direction 0.000000 -1.000000 0.000000
      length 16.759153
      axis 0.0 0.0 0.0 xyz
      dof rx ry rz
   end
   begin
      id 25
      name LeftFoot
      direction 0.000000 -0.258819 0.965926
      length 5.841289
      axis 15.0 0.0 0.0 xyz
      dof rx ry rz
   end
   begin
      id 26
      name LeftToeBase
      direction 0.000000 0.000000 1.000000
      length 2.952750
      axis 0.0 0.0 0.0 xyz
      dof rx ry rz
   end
   begin
      id 27
      name RightUpLeg
      direction 0.000000 -1.000000 0.000000
      length 16.757176
      axis 0.0 0.0 0.0 xyz
      dof rx ry rz
   end
   begin
      id 28
      name RightLeg
      direction 0.000000 -1.000000 0.000000
      length 16.759153
      axis 0.0 0.0 0.0 xyz
      dof rx ry rz
   end
   begin
      id 29
      name RightFoot
      direction 0.000000 -0.258819 0.965926
      length 5.841289
      axis 15.0 0.0 0.0 xyz
      dof rx ry rz
   end
   begin
      id 30
      name RightToeBase
      direction 0.000000 0.000000 1.000000
      length 2.952750
      axis 0.0 0.0 0.0 xyz
      dof rx ry rz
   end
:hierarchy
   begin
      root Spine_dum LeftUpLeg_dum RightUpLeg_dum
      Spine_dum Spine
      LeftUpLeg_dum LeftUpLeg
      RightUpLeg_dum RightUpLeg
      Spine Spine_dum1 Spine_dum2 Spine_dum3
      Spine_dum1 Head
      Spine_dum2 LeftShoulder
      Spine_dum3 RightShoulder
      LeftShoulder LeftArm
      LeftArm LeftForeArm
      LeftForeArm LeftHand
      LeftHand LeftHand_dum1 LeftHand_dum2
      LeftHand_dum1 LeftHandThumb1
      RightShoulder RightArm
      RightArm RightForeArm
      RightForeArm RightHand
      RightHand RightHand_dum1 RightHand_dum2
      RightHand_dum1 RightHandThumb1
      LeftUpLeg LeftLeg
      LeftLeg LeftFoot
      LeftFoot LeftToeBase
      RightUpLeg RightLeg
      RightLeg RightFoot
      RightFoot RightToeBase
   end

# File created by Blade
# Date/Time:  Wed Jan 28 16:58:32 2015
# Frame Rate: 120.000 fps
#------------------------------------------------------
:FULLY-SPECIFIED
:DEGREES
1878
root 9.315791 35.815474 -18.233608 216.743520 42.634629 -165.563366
Spine 15.658314 22.655981 -11.454869
Head 38.179163 37.822660 11.881687
LeftShoulder -12.798877 0.653149 24.854752
LeftArm 40.494652 -61.427661 -85.614827
LeftForeArm -29.689510 0.000000 117.157415
LeftHand -10.819146 0.000000 38.455226
LeftHandThumb1 -26.253704 0.000000 33.147579
RightShoulder -14.939756 -2.481523 -12.300382
RightArm 33.755728 -23.873271 56.101643
RightForeArm -18.294492 -0.000000 83.189125
RightHand -16.312435 -0.000000 -0.744155
RightHandThumb1 -24.326973 -0.000000 -32.862282
LeftUpLeg -36.692838 24.819821 -12.032205
LeftLeg 12.334721 -0.000000 -0.000000
LeftFoot -20.080906 26.513038 -11.470687
LeftToeBase 11.999430 -0.000000 -0.000000
RightUpLeg 24.275159 -30.012177 -9.096939
RightLeg 55.775657 -0.000000 -0.000000
RightFoot 13.472370 -13.687209 36.199455
RightToeBase -9.239015 -0.000000 0.000000
1879
root 9.347427 35.803967 -18.254527 216.423789 42.690367 -165.732508
Spine 15.702495 22.625195 -11.655694
Head 38.360481 37.817094 12.096348
LeftShoulder -12.720932 0.633974 24.924158
LeftArm 40.440190 -61.326835 -85.033860
LeftForeArm -29.742713 0.000000 116.871299
LeftHand -10.851511 0.000000 38.365490
LeftHandThumb1 -26.253704 0.000000 33.147579
RightShoulder -14.925851 -2.521217 -12.203135
RightArm 33.524626 -24.161318 56.347532
RightForeArm -18.605871 -0.000000 82.919851
RightHand -16.196583 -0.000000 -0.598849
RightHandThumb1 -24.326973 -0.000000 -32.862282
LeftUpLeg -36.313755 24.549441 -11.861900
LeftLeg 12.304084 -0.000000 -0.000000
LeftFoot -20.118375 26.909742 -11.421626
LeftToeBase 11.974004 -0.000000 -0.000000
RightUpLeg 23.932731 -30.291119 -8.850060
RightLeg 55.971973 -0.000000 -0.000000
RightFoot 13.421590 -13.643738 36.165936
RightToeBase -9.770789 -0.000000 0.000000
1880
root 9.384416 35.794977 -18.275377 216.120090 42.755711 -165.830993
Spine 15.778581 22.594638 -11.812785
Head 38.495860 37.816539 12.249636
LeftShoulder -12.685486 0.600487 24.962854
LeftArm 40.332807 -61.203318 -84.386896
LeftForeArm -29.850113 -0.000000 116.588433
LeftHand -10.796558 -0.000000 38.451840
LeftHandThumb1 -26.253704 0.000000 33.147579
RightShoulder -14.910913 -2.524504 -12.130319
RightArm 33.338655 -24.528533 56.531980
RightForeArm -18.957730 -0.000000 82.553673
RightHand -16.047370 -0.000000 -0.580772
RightHandThumb1 -24.326973 -0.000000 -32.862282
LeftUpLeg -35.907439 24.398181 -11.686271
LeftLeg 12.250145 -0.000000 -0.000000
LeftFoot -20.192837 27.296997 -11.346417
LeftToeBase 12.085556 -0.000000 -0.000000
RightUpLeg 23.584966 -30.446152 -8.539847
RightLeg 56.164287 -0.000000 -0.000000
RightFoot 13.416275 -13.536909 36.382233
RightToeBase -9.960806 -0.000000 0.000000
1881
root 9.414415 35.786994 -18.296628 215.851676 42.848920 -165.955412
Spine 15.783372 22.543173 -12.049745
Head 38.597511 37.853981 12.388267
LeftShoulder -12.660571 0.571257 25.032114
LeftArm 40.169001 -61.099277 -83.743233
LeftForeArm -29.859642 -0.000000 116.328054
LeftHand -10.697118 -0.000000 38.477975
LeftHandThumb1 -26.253704 0.000000 33.147579
RightShoulder -14.945078 -2.577388 -12.015841
RightArm 33.229035 -24.894835 56.670728
RightForeArm -19.166642 0.000000 82.198514
RightHand -15.963354 -0.000000 -0.096189
RightHandThumb1 -24.326973 -0.000000 -32.862282
LeftUpLeg -35.567702 24.312200 -11.607347
LeftLeg 12.175031 -0.000000 -0.000000
LeftFoot -20.238749 27.467670 -11.378220
LeftToeBase 12.046466 -0.000000 -0.000000
RightUpLeg 23.133681 -30.534757 -8.202721
RightLeg 56.405773 -0.000000 -0.000000
RightFoot 13.379047 -13.291935 36.724443
RightToeBase -9.894167 -0.000000 0.000000
1882
root 9.445746 35.785336 -18.309128 215.702508 42.934232 -165.969419
Spine 15.729101 22.501240 -12.214118
Head 38.713686 37.899014 12.484191
LeftShoulder -12.637674 0.520009 25.077373
LeftArm 40.103377 -61.010112 -83.260907
LeftForeArm -29.838266 0.000000 116.106876
LeftHand -10.724163 -0.000000 38.507909
LeftHandThumb1 -26.253704 0.000000 33.147579
RightShoulder -14.983863 -2.672067 -11.917164
RightArm 33.194129 -25.380897 56.698970
RightForeArm -19.219277 -0.000000 81.812282
RightHand -16.097119 -0.000000 -0.719417
RightHandThumb1 -24.326973 -0.000000 -32.862282
LeftUpLeg -35.289194 24.235040 -11.455765
LeftLeg 12.102698 -0.000000 -0.000000
LeftFoot -20.280039 27.685621 -11.422113
LeftToeBase 12.052173 -0.000000 -0.000000
RightUpLeg 22.619989 -30.589659 -7.761586
RightLeg 56.624577 -0.000000 -0.000000
RightFoot 13.466223 -12.992447 36.876593
RightToeBase -9.480287 -0.000000 0.000000
1883
root 9.477938 35.786762 -18.321152 215.561429 43.016282 -165.966283
Spine 15.673365 22.414811 -12.382380
Head 38.841087 37.975418 12.561853
LeftShoulder -12.635520 0.477057 25.142425
LeftArm 39.913652 -60.934282 -82.729687
LeftForeArm -29.753270 -0.000000 115.950406
LeftHand -10.723625 -0.000000 38.580682
LeftHandThumb1 -26.253704 0.000000 33.147579
RightShoulder -14.979174 -2.754398 -11.829405
RightArm 33.091984 -25.743730 56.826895
RightForeArm -19.402813 0.000000 81.483338
RightHand -16.351263 -0.000000 -0.232229
RightHandThumb1 -24.326973 -0.000000 -32.862282
LeftUpLeg -35.065578 24.283630 -11.360933
LeftLeg 12.083133 -0.000000 -0.000000
LeftFoot -20.304281 27.752504 -11.463732
LeftToeBase 12.023337 -0.000000 -0.000000
RightUpLeg 22.151563 -30.651077 -7.348337
RightLeg 56.798557 -0.000000 -0.000000
RightFoot 13.614666 -12.630300 36.903775
RightToeBase -9.626286 -0.000000 0.000000
1884
root 9.512851 35.787605 -18.334691 215.392202 43.113604 -165.942854
Spine 15.683529 22.368444 -12.548383
Head 38.817940 38.028650 12.569875
LeftShoulder -12.649964 0.447246 25.228436
LeftArm 39.883400 -60.852038 -82.401539
LeftForeArm -29.642487 -0.000000 115.838312
LeftHand -10.738294 -0.000000 38.738651
LeftHandThumb1 -26.253704 0.000000 33.147579
RightShoulder -15.016561 -2.750943 -11.780042
RightArm 32.875573 -26.102596 57.032244
RightForeArm -19.821792 -0.000000 81.147538
RightHand -16.347724 -0.000000 0.468048
RightHandThumb1 -24.326973 -0.000000 -32.862282
LeftUpLeg -34.854171 24.449523 -11.289198
LeftLeg 12.140163 -0.000000 -0.000000
LeftFoot -20.364433 27.699863 -11.513080
LeftToeBase 12.028912 -0.000000 -0.000000
RightUpLeg 21.799573 -30.711384 -7.040667
RightLeg 56.941391 -0.000000 -0.000000
RightFoot 13.593534 -12.346814 37.242873
RightToeBase -9.439450 -0.000000 0.000000
1885
root 9.549089 35.790274 -18.346485 215.267334 43.194729 -165.861500
Spine 15.687741 22.300264 -12.641812
Head 38.864203 38.111948 12.547912
LeftShoulder -12.636007 0.376434 25.260821
LeftArm 39.492267 -60.856669 -81.742033
LeftForeArm -29.614429 -0.000000 115.788944
LeftHand -10.677537 -0.000000 38.629985
LeftHandThumb1 -26.253704 0.000000 33.147579
RightShoulder -15.060505 -2.896025 -11.707561
RightArm 32.800769 -26.357520 57.204339
RightForeArm -19.879373 -0.000000 80.863058
RightHand -16.770674 -0.000000 0.910069
RightHandThumb1 -24.326973 -0.000000 -32.862282
LeftUpLeg -34.711564 24.713644 -11.223942
LeftLeg 12.266155 -0.000000 -0.000000
LeftFoot -20.409110 27.563809 -11.537958
LeftToeBase 11.994913 -0.000000 -0.000000
RightUpLeg 21.497618 -30.801913 -6.777313
RightLeg 57.068701 -0.000000 -0.000000
RightFoot 13.478741 -12.211607 37.535119
RightToeBase -8.841303 -0.000000 0.000000
1886
root 9.585749 35.791555 -18.363418 215.099096 43.268145 -165.796418
Spine 15.731864 22.210263 -12.728837
Head 38.903068 38.202150 12.516719
LeftShoulder -12.685208 0.430402 25.284589
LeftArm 39.735017 -60.801884 -81.761438
LeftForeArm -29.478264 -0.000000 115.771776
LeftHand -10.758722 -0.000000 38.535961
LeftHandThumb1 -26.253704 0.000000 33.147579
RightShoulder -15.095316 -2.946617 -11.656224
RightArm 32.646813 -26.820829 57.206150
RightForeArm -20.662617 -0.000000 80.220676
RightHand -15.785274 -0.000000 0.189088
RightHandThumb1 -24.326973 -0.000000 -32.862282
LeftUpLeg -34.485395 24.876717 -11.101404
LeftLeg 12.356043 -0.000000 -0.000000
LeftFoot -20.478674 27.545466 -11.582273
LeftToeBase 11.995108 -0.000000 -0.000000
RightUpLeg 21.329568 -30.952794 -6.664858
RightLeg 57.147759 -0.000000 -0.000000
RightFoot 13.445644 -12.146836 37.749906
RightToeBase -8.891634 -0.000000 0.000000
